# xmcd CD database file
#
# Track frame offsets:
#	150
#	14092
#	31805
#	52120
#	78635
#	90760
#	108535
#	116960
#	132527
#	146647
#	165782
#
# Disc length: 2344 seconds
#
# Revision: 2
# Processed by: cddbd v1.5.2PL0 Copyright (c) Steve Scherf et al.
# Submitted via: CDex 1.60beta1
#
DISCID=9209260b
DTITLE=Gillian Welch - Hell Among the Yearlings
DYEAR=1998
DGENRE=Country
TTITLE0=Caleb Meyer
TTITLE1=Good Til Now
TTITLE2=The Devil Had a Hold on Me
TTITLE3=My Morphine
TTITLE4=One Morning
TTITLE5=Miner's Refrain
TTITLE6=Honey Now
TTITLE7=I'm Not Afraid to Die
TTITLE8=Rock of Ages
TTITLE9=Whiskey Girl
TTITLE10=Winter's Come and Gone
EXTD=YEAR: 1998
EXTT0=
EXTT1=
EXTT2=
EXTT3=
EXTT4=
EXTT5=
EXTT6=
EXTT7=
EXTT8=
EXTT9=
EXTT10=
PLAYORDER=
